:SAMPLES-PER-SECOND 30
:FULLY-SPECIFIED
:DEGREES
186
root  -61.4959 39.9655 -3.96769 10.991 -33.8458 3.08366
RightUpLeg  -19.0281 -12.1239 -1.30375
RightLeg  13.3602 -37.8457 -1.47456
RightFoot  -7.58643 -0.069451 0.572398
RightToes  3.49245e-010 0 -3.6325e-017
Spine  -17.1384 -8.88223 -15.5992
Spine1  40.3854 -17.9524 19.1362
HEad  -33.0738 25.5438 -28.3745
LeftShoulder1  1.40143 -2.30114 -17.5072
LeftArm  -22.3849 -36.2956 -33.779
LeftForeArm  -1.03742 -65.9148 -26.8653
LeftHand  -0.210135 9.54792 -4.22597
RightShoulder  0.475341 -1.03067 12.3041
RightArm  -30.3111 35.6877 20.8392
RightForeArm  -10.1807 71.5601 40.1077
RightHand  -0.366964 1.88633 -6.04024
LeftUpLeg  -27.3265 -0.130649 2.87438
LeftLeg  21.423 -10.6254 -4.25326
LeftFoot  -5.78854 0.11763 -1.67951
LeftToes  -5.36635e-011 -6.70219e-011 5.24975e-011
187
root  -61.689 40.0159 -3.68576 8.69102 -28.7415 2.70174
RightUpLeg  -14.2967 -14.2884 -2.48697
RightLeg  12.7085 -40.7819 0.0885464
RightFoot  -8.84284 -0.0834094 1.05028
RightToes  3.49245e-010 0 -3.6325e-017
Spine  -21.3227 -9.95833 -11.8496
Spine1  47.3714 -16.5911 13.1529
HEad  -32.4574 24.4695 -29.4127
LeftShoulder1  1.49744 -2.95221 -16.4847
LeftArm  -21.4417 -34.7349 -34.872
LeftForeArm  -0.378179 -66.9928 -28.5087
LeftHand  -0.178013 10.0486 -2.90726
RightShoulder  0.389909 -1.54738 13.0899
RightArm  -29.4539 34.6757 20.0663
RightForeArm  -8.82629 72.4017 42.7099
RightHand  -0.380412 1.17467 -6.83257
LeftUpLeg  -22.6362 1.5268 2.01679
LeftLeg  24.8667 -8.25436 -3.847
LeftFoot  -7.97818 0.0722167 -0.85209
LeftToes  -5.36635e-011 -6.70219e-011 5.24975e-011
188
root  -61.5948 39.8867 -4.27396 9.06517 -25.2412 1.88933
RightUpLeg  -15.6098 -13.3303 -1.2214
RightLeg  15.312 -44.89 -2.88017
RightFoot  -8.95473 -0.093329 1.57697
RightToes  3.49245e-010 0 -3.6325e-017
Spine  -16.6036 -9.06093 -14.1958
Spine1  42.295 -17.4138 17.4059
HEad  -32.3468 24.7374 -31.2942
LeftShoulder1  1.41891 -2.34653 -17.6087
LeftArm  -20.6891 -33.2508 -34.9032
LeftForeArm  1.47259 -68.0656 -30.1438
LeftHand  -0.160677 9.30397 -3.08364
RightShoulder  0.404228 -1.45782 12.9138
RightArm  -28.7259 33.9983 20.2011
RightForeArm  -6.6191 72.8871 44.2255
RightHand  -0.275188 0.94956 -5.16451
LeftUpLeg  -22.6143 6.41621 2.03881
LeftLeg  28.9096 -6.63025 -3.62857
LeftFoot  -9.06236 0.0542841 0.0214048
LeftToes  -5.36635e-011 -6.70219e-011 5.24975e-011
189
root  -61.4878 39.8274 -4.52927 7.49605 -20.5987 1.38576
RightUpLeg  -13.8603 -14.0757 -1.50703
RightLeg  17.2985 -48.4858 -4.47065
RightFoot  -9.31377 -0.106091 2.41455
RightToes  3.49245e-010 0 -3.6325e-017
Spine  -13.1044 -8.54145 -13.3434
Spine1  40.1156 -16.7116 17.1183
HEad  -31.5748 24.2526 -32.2693
LeftShoulder1  1.40928 -2.31009 -17.6101
LeftArm  -20.0857 -32.1398 -35.7915
LeftForeArm  3.24042 -68.8496 -31.4373
LeftHand  -0.19289 9.33831 -3.96885
RightShoulder  0.393507 -1.57288 13.6113
RightArm  -28.1484 32.9886 20.2697
RightForeArm  -3.37816 73.5012 46.2785
RightHand  -0.243826 1.1835 -4.42513
LeftUpLeg  -20.0364 10.7295 2.00078
LeftLeg  31.0676 -4.87832 -2.84584
LeftFoot  -10.4342 0.0570541 0.663509
LeftToes  -5.36635e-011 -6.70219e-011 5.24975e-011
190
root  -61.4015 39.7826 -4.84456 6.50797 -16.2451 0.52887
RightUpLeg  -12.6058 -14.2283 -1.21579
RightLeg  18.8557 -52.3209 -6.02641
RightFoot  -9.27393 -0.116347 2.97383
RightToes  3.49245e-010 0 -3.6325e-017
Spine  -9.40074 -7.90175 -12.8521
Spine1  37.0377 -16.393 17.9327
HEad  -31.1788 24.371 -33.5367
LeftShoulder1  1.39222 -2.02203 -18.633
LeftArm  -19.6216 -30.9816 -36.1616
LeftForeArm  4.80245 -69.853 -33.3689
LeftHand  -0.163545 9.4595 -3.05079
RightShoulder  0.414811 -1.45915 13.4948
RightArm  -27.658 31.8301 20.6298
RightForeArm  -1.46324 74.1641 49.0936
RightHand  -0.308242 1.35945 -5.45015
LeftUpLeg  -18.0278 17.6345 2.50277
LeftLeg  31.8174 -3.73252 -2.1658
LeftFoot  -11.5784 0.0709205 0.902075
LeftToes  -5.36635e-011 -6.70219e-011 5.24975e-011
191
root  -61.0913 39.8153 -5.16827 4.18579 -11.7115 -0.189575
RightUpLeg  -9.18197 -15.5485 -2.23136
RightLeg  17.9122 -55.5437 -4.4382
RightFoot  -8.95851 -0.110258 2.37085
RightToes  3.49245e-010 0 -3.6325e-017
Spine  -3.61322 -7.31237 -10.21
Spine1  32.7932 -15.0344 16.1801
HEad  -31.1581 24.6753 -33.2417
LeftShoulder1  1.35387 -1.78157 -19.0821
LeftArm  -19.0635 -29.7115 -37.0089
LeftForeArm  7.00412 -70.7354 -35.1924
LeftHand  -0.0895051 8.02293 -1.69879
RightShoulder  0.438308 -1.37669 13.8484
RightArm  -27.2962 30.6999 20.9047
RightForeArm  2.57335 74.8311 52.0118
RightHand  -0.293442 1.47497 -5.10397
LeftUpLeg  -14.5725 24.557 3.33062
LeftLeg  31.2562 -0.592295 -0.0543765
LeftFoot  -12.7075 0.0903691 1.12105
LeftToes  -5.36635e-011 -6.70219e-011 5.24975e-011
192
root  -60.9727 39.8453 -5.36921 1.06905 -6.59848 -0.749954
RightUpLeg  -4.62965 -16.8874 -3.63354
RightLeg  17.2984 -58.9719 -3.12246
RightFoot  -8.94113 -0.106779 2.2051
RightToes  3.49245e-010 0 -3.6325e-017
Spine  1.22332 -7.06398 -9.51285
Spine1  30.5537 -14.5895 15.5751
HEad  -31.1137 24.1928 -32.3266
LeftShoulder1  1.29029 -1.54621 -19.0141
LeftArm  -18.7057 -28.6231 -38.3511
LeftForeArm  8.31553 -71.5276 -37.1247
LeftHand  -0.0609836 5.88869 -1.16439
RightShoulder  0.414641 -1.52503 14.2473
RightArm  -26.9329 30.0532 21.2939
RightForeArm  5.83033 75.2821 54.2273
RightHand  -0.261934 1.16659 -4.7609
LeftUpLeg  -9.63255 31.2279 5.62121
LeftLeg  30.013 4.16701 2.91481
LeftFoot  -13.4595 0.116797 1.97225
LeftToes  -5.36635e-011 -6.70219e-011 5.24975e-011
193
root  -60.8412 39.8886 -5.51203 -1.86876 -1.50647 -1.05064
RightUpLeg  0.239141 -19.1035 -5.91672
RightLeg  15.3425 -61.408 0.0484326
RightFoot  -9.00313 -0.0923998 1.54952
RightToes  3.49245e-010 0 -3.6325e-017
Spine  4.32833 -6.83151 -8.43492
Spine1  29.5987 -13.7628 14.0346
HEad  -30.8067 23.4976 -31.0612
LeftShoulder1  1.27151 -1.48408 -18.9454
LeftArm  -17.7396 -28.4566 -39.7655
LeftForeArm  8.79084 -71.7077 -37.6081
LeftHand  -0.205225 9.88756 -3.53968
RightShoulder  0.370106 -1.76098 14.6031
RightArm  -26.7382 28.7054 21.401
RightForeArm  7.82436 75.6739 56.601
RightHand  -0.294841 1.60011 -5.05492
LeftUpLeg  -3.83649 35.9223 8.44453
LeftLeg  27.0493 8.03914 4.75975
LeftFoot  -13.3201 0.121342 2.25817
LeftToes  -5.36635e-011 -6.70219e-011 5.24975e-011
